Coordinates
version=1
nRows=9
nColumns=36
inDegrees=yes

Units are S.I. units (second, meters, Newtons, ...)
If the header above contains a line with 'inDegrees', this indicates whether rotational values are in degrees (yes) or radians (no).

endheader
time	pelvis_tilt	pelvis_list	pelvis_rotation	pelvis_tx	pelvis_ty	pelvis_tz	hip_flexion_r	hip_adduction_r	hip_rotation_r	knee_angle_r	knee_angle_r_beta	ankle_angle_r	subtalar_angle_r	mtp_angle_r	hip_flexion_l	hip_adduction_l	hip_rotation_l	knee_angle_l	knee_angle_l_beta	ankle_angle_l	subtalar_angle_l	mtp_angle_l	lumbar_extension	lumbar_bending	lumbar_rotation	arm_flex_r	arm_add_r	arm_rot_r	elbow_flex_r	pro_sup_r	arm_flex_l	arm_add_l	arm_rot_l	elbow_flex_l	pro_sup_l
      0.00000000	      5.03604832	     -2.11635140	      1.30409481	     -0.93666754	      1.23999799	     -0.08135816	     -8.57104868	      2.24340308	     -3.46899219	      3.57295693	      0.06235986	      7.82961912	    -14.91363678	     -5.50067966	     -7.25980915	     -3.18168839	      1.15622494	      4.94529479	      0.08631168	     10.85363755	     -9.02555899	     -5.50067966	    -13.62947763	      3.97031790	     -0.18045177	     10.60713530	     -6.09063059	     23.04624134	     23.36808422	     74.47342131	      5.97452298	     -3.94230121	     19.68330152	     22.40007493	     64.24541803
      0.00166670	      2.05819272	     -1.50461549	      1.28101402	     -0.93595947	      1.23932970	     -0.08113069	     -3.89372248	      1.84318038	     -2.51845189	      5.75768903	      0.10049063	     10.14398098	    -14.30889867	     -5.58588990	     -2.30340435	     -1.81776353	      2.31320470	      6.97482167	      0.12173360	     10.78442117	     -9.62144090	     -5.58588990	     -9.85818314	      3.47673908	     -0.25759417	      9.61765322	     -5.80118338	     20.99235040	     23.01848908	     74.63915626	      5.58503423	     -3.76346708	     18.53289060	     21.49411900	     64.23080593
      0.00333330	      1.63118087	     -0.59063279	      0.94361248	     -0.93397526	      1.23723725	     -0.08032431	     -3.75565699	      0.76378945	     -2.61814843	      5.09817483	      0.08897994	      9.64709351	    -14.10715818	     -5.84885588	     -2.23774378	     -0.90832208	      1.68019200	      6.36946313	      0.11116810	     10.08991259	     -9.54930721	     -5.84885588	     -8.97266532	      2.09252180	     -0.13851136	      9.23325823	     -5.04988992	     19.69724488	     22.87336987	     73.12287957	      5.77621565	     -4.37019248	     18.72641146	     21.28784733	     63.93591442
      0.00500000	      3.02710319	     -0.04495495	      0.72520210	     -0.93388845	      1.24233150	     -0.07976177	     -5.97160171	      0.10860745	     -2.66958041	      3.98076057	      0.06947738	      9.84869917	    -13.21910614	     -6.28163400	     -4.84607212	     -0.29479428	      1.78881724	      4.76349207	      0.08313862	      9.25044760	    -10.12672196	     -6.28163400	    -10.65637257	      1.21422621	      0.58213006	      8.66014684	     -4.75670352	     17.29669266	     23.72639574	     73.68941221	      6.79756094	     -5.25963166	     22.53405165	     21.21704577	     65.34226224
      0.00666670	      3.94851706	      0.13843997	      0.44637879	     -0.93415191	      1.24192076	     -0.07855936	     -7.46145429	     -0.04206041	     -2.68780337	      3.02680220	      0.05282766	      9.10760343	    -13.95251434	     -6.33378481	     -6.63566686	     -0.00373737	      1.89795509	      3.50440385	      0.06116339	      8.60779044	    -10.60613927	     -6.33378481	    -11.82931288	      0.87380713	      0.85391784	      8.75303425	     -4.73848426	     17.70514617	     24.05717970	     73.62465834	      7.19219576	     -5.59373808	     23.17762869	     21.37902969	     65.46080273
      0.00833330	      4.55830060	      0.30374586	      0.32917717	     -0.93354053	      1.24587150	     -0.07903214	     -8.47415181	     -0.14600698	     -2.51058300	      2.30319640	      0.04019836	      8.52919648	    -14.59304463	     -6.41658141	     -7.74211225	      0.25437744	      2.06164742	      2.80810297	      0.04901064	      8.14258679	    -11.00752773	     -6.41658141	    -12.64624989	      0.58569729	      1.16919863	      8.76240980	     -4.77911793	     18.15754035	     24.24930319	     72.85924998	      7.63609935	     -5.66505672	     23.78297609	     21.32183651	     65.30591932
      0.01000000	      4.86502671	      0.38301268	      0.23919841	     -0.93306045	      1.24433776	     -0.07916062	     -9.13197124	     -0.19580093	     -2.31031908	      1.65580365	      0.02889923	      8.04807720	    -15.14221404	     -6.74639816	     -8.36492913	      0.40259466	      2.33678736	      2.33211854	      0.04070315	      7.63419847	    -11.57158863	     -6.74639816	    -13.03456718	      0.50225471	      1.46935918	      8.75461912	     -5.28120530	     20.72572524	     24.76900242	     71.64322803	      8.08186717	     -6.06048273	     27.37945748	     21.45424003	     65.61264629
      0.01166670	      5.12498086	      0.44460053	      0.15740886	     -0.93305780	      1.24473563	     -0.07841171	     -9.58535721	     -0.20591998	     -2.11237907	      1.27628027	      0.02227529	      7.76829606	    -15.51342659	     -6.90396695	     -8.82556052	      0.50473850	      2.52490252	      2.04859272	      0.03575469	      7.27861681	    -11.99717656	     -6.90396695	    -13.41729582	      0.38635429	      1.66531009	      8.75843186	     -5.45757998	     21.63493430	     25.06436685	     70.54406013	      8.34105718	     -6.09662676	     28.14168574	     21.52082806	     65.14812708
      0.01333330	      5.18351898	      0.49142610	      0.12166754	     -0.93342638	      1.24508548	     -0.07803139	     -9.73802716	     -0.19746799	     -2.00036903	      1.04287933	      0.01820168	      7.51241617	    -15.98212940	     -7.05363849	     -8.96900351	      0.56196198	      2.80071349	      1.89503177	      0.03307454	      6.80638523	    -12.43608792	     -7.05363849	    -13.47018543	      0.34419325	      1.82458493	      8.79129018	     -5.70833314	     22.95780679	     25.19041588	     69.83712033	      8.54634189	     -6.20781685	     29.45721075	     21.49837191	     64.93938998
